<svg xmlns="http://www.w3.org/2000/svg" version="1.1" width="474.7mm" height="159.7mm" viewBox = " 0 0 1682.009257 565.8666069999999" >
<!-- Front--> 
<g transform="translate(22.5000185, 22.5000185) " > 
<polygon style="stroke:#000000; fill:none; stroke-width:0.90000074" points="0, 0 38.97641, 0 38.97641, 10.62993 77.95282, 10.62993 77.95282, 0 106.2993, 0 106.2993, 10.62993 134.64578, 10.62993 134.64578, 0 162.99226, 0 162.99226, 10.62993 191.33874, 10.62993 191.33874, 0 219.68522, 0 219.68522, 10.62993 248.0317, 10.62993 248.0317, 0 276.37818000000004, 0 276.37818000000004, 10.62993 304.72466, 10.62993 304.72466, 0 333.07114, 0 333.07114, 10.62993 361.41761999999994, 10.62993 361.41761999999994, 0 389.7641, 0 389.7641, 10.62993 418.11058, 10.62993 418.11058, 0 446.45705999999996, 0 446.45705999999996, 10.62993 474.80354, 10.62993 474.80354, 0 503.15002000000004, 0 503.15002000000004, 10.62993 531.4965, 10.62993 531.4965, 0 559.84298, 0 559.84298, 10.62993 598.81939, 10.62993 598.81939, 0 637.7958, 0 637.7958, 31.889789999999998 627.16587, 31.889789999999998 627.16587, 63.779579999999996 637.7958, 63.779579999999996 637.7958, 95.66936999999999 627.16587, 95.66936999999999 627.16587, 127.55915999999999 637.7958, 127.55915999999999 637.7958, 159.44895 598.81939, 159.44895 598.81939, 148.81902 559.84298, 148.81902 559.84298, 159.44895 531.4965, 159.44895 531.4965, 148.81902 503.15002000000004, 148.81902 503.15002000000004, 159.44895 474.80354, 159.44895 474.80354, 148.81902 446.45705999999996, 148.81902 446.45705999999996, 159.44895 418.11058, 159.44895 418.11058, 148.81902 389.7641, 148.81902 389.7641, 159.44895 361.41761999999994, 159.44895 361.41761999999994, 148.81902 333.07114, 148.81902 333.07114, 159.44895 304.72466, 159.44895 304.72466, 148.81902 276.37818000000004, 148.81902 276.37818000000004, 159.44895 248.0317, 159.44895 248.0317, 148.81902 219.68522, 148.81902 219.68522, 159.44895 191.33874, 159.44895 191.33874, 148.81902 162.99226, 148.81902 162.99226, 159.44895 134.64578, 159.44895 134.64578, 148.81902 106.2993, 148.81902 106.2993, 159.44895 77.95282, 159.44895 77.95282, 148.81902 38.97641, 148.81902 38.97641, 159.44895 0, 159.44895 0, 127.55915999999999 10.62993, 127.55915999999999 10.62993, 95.66936999999999 0, 95.66936999999999 0, 63.779579999999996 10.62993, 63.779579999999996 10.62993, 31.889789999999998 0, 31.889789999999998 "/> 
</g>
<!-- Back--> 
<g transform="translate(660.2958185, 22.5000185) " > 
<polygon style="stroke:#000000; fill:none; stroke-width:0.90000074" points="0, 0 38.97641, 0 38.97641, 10.62993 77.95282, 10.62993 77.95282, 0 106.2993, 0 106.2993, 10.62993 134.64578, 10.62993 134.64578, 0 162.99226, 0 162.99226, 10.62993 191.33874, 10.62993 191.33874, 0 219.68522, 0 219.68522, 10.62993 248.0317, 10.62993 248.0317, 0 276.37818000000004, 0 276.37818000000004, 10.62993 304.72466, 10.62993 304.72466, 0 333.07114, 0 333.07114, 10.62993 361.41761999999994, 10.62993 361.41761999999994, 0 389.7641, 0 389.7641, 10.62993 418.11058, 10.62993 418.11058, 0 446.45705999999996, 0 446.45705999999996, 10.62993 474.80354, 10.62993 474.80354, 0 503.15002000000004, 0 503.15002000000004, 10.62993 531.4965, 10.62993 531.4965, 0 559.84298, 0 559.84298, 10.62993 598.81939, 10.62993 598.81939, 0 637.7958, 0 637.7958, 31.889789999999998 627.16587, 31.889789999999998 627.16587, 63.779579999999996 637.7958, 63.779579999999996 637.7958, 95.66936999999999 627.16587, 95.66936999999999 627.16587, 127.55915999999999 637.7958, 127.55915999999999 637.7958, 159.44895 598.81939, 159.44895 598.81939, 148.81902 559.84298, 148.81902 559.84298, 159.44895 531.4965, 159.44895 531.4965, 148.81902 503.15002000000004, 148.81902 503.15002000000004, 159.44895 474.80354, 159.44895 474.80354, 148.81902 446.45705999999996, 148.81902 446.45705999999996, 159.44895 418.11058, 159.44895 418.11058, 148.81902 389.7641, 148.81902 389.7641, 159.44895 361.41761999999994, 159.44895 361.41761999999994, 148.81902 333.07114, 148.81902 333.07114, 159.44895 304.72466, 159.44895 304.72466, 148.81902 276.37818000000004, 148.81902 276.37818000000004, 159.44895 248.0317, 159.44895 248.0317, 148.81902 219.68522, 148.81902 219.68522, 159.44895 191.33874, 159.44895 191.33874, 148.81902 162.99226, 148.81902 162.99226, 159.44895 134.64578, 159.44895 134.64578, 148.81902 106.2993, 148.81902 106.2993, 159.44895 77.95282, 159.44895 77.95282, 148.81902 38.97641, 148.81902 38.97641, 159.44895 0, 159.44895 0, 127.55915999999999 10.62993, 127.55915999999999 10.62993, 95.66936999999999 0, 95.66936999999999 0, 63.779579999999996 10.62993, 63.779579999999996 10.62993, 31.889789999999998 0, 31.889789999999998 "/> 
</g>
<!-- Left--> 
<g transform="translate(1298.0916185, 22.5000185) " > 
<polygon style="stroke:#000000; fill:none; stroke-width:0.90000074" points="10.62993, 0 40.748065, 0 40.748065, 10.62993 81.49613, 10.62993 81.49613, 0 109.84261, 0 109.84261, 10.62993 138.18909, 10.62993 138.18909, 0 166.53557, 0 166.53557, 10.62993 194.88205, 10.62993 194.88205, 0 223.22852999999998, 0 223.22852999999998, 10.62993 251.57501, 10.62993 251.57501, 0 279.92149, 0 279.92149, 10.62993 320.669555, 10.62993 320.669555, 0 350.78769, 0 350.78769, 31.889789999999998 361.41762, 31.889789999999998 361.41762, 63.779579999999996 350.78769, 63.779579999999996 350.78769, 95.66936999999999 361.41762, 95.66936999999999 361.41762, 127.55915999999999 350.78769, 127.55915999999999 350.78769, 159.44895 320.669555, 159.44895 320.669555, 148.81902 279.92149, 148.81902 279.92149, 159.44895 251.57501, 159.44895 251.57501, 148.81902 223.22852999999998, 148.81902 223.22852999999998, 159.44895 194.88205, 159.44895 194.88205, 148.81902 166.53557, 148.81902 166.53557, 159.44895 138.18909, 159.44895 138.18909, 148.81902 109.84261, 148.81902 109.84261, 159.44895 81.49613, 159.44895 81.49613, 148.81902 40.748065, 148.81902 40.748065, 159.44895 10.62993, 159.44895 10.62993, 127.55915999999999 0, 127.55915999999999 0, 95.66936999999999 10.62993, 95.66936999999999 10.62993, 63.779579999999996 0, 63.779579999999996 0, 31.889789999999998 10.62993, 31.889789999999998 "/> 
</g>
<!-- Right--> 
<g transform="translate(1298.0916185, 181.9489685) " > 
<polygon style="stroke:#000000; fill:none; stroke-width:0.90000074" points="10.62993, 0 40.748065, 0 40.748065, 10.62993 81.49613, 10.62993 81.49613, 0 109.84261, 0 109.84261, 10.62993 138.18909, 10.62993 138.18909, 0 166.53557, 0 166.53557, 10.62993 194.88205, 10.62993 194.88205, 0 223.22852999999998, 0 223.22852999999998, 10.62993 251.57501, 10.62993 251.57501, 0 279.92149, 0 279.92149, 10.62993 320.669555, 10.62993 320.669555, 0 350.78769, 0 350.78769, 31.889789999999998 361.41762, 31.889789999999998 361.41762, 63.779579999999996 350.78769, 63.779579999999996 350.78769, 95.66936999999999 361.41762, 95.66936999999999 361.41762, 127.55915999999999 350.78769, 127.55915999999999 350.78769, 159.44895 320.669555, 159.44895 320.669555, 148.81902 279.92149, 148.81902 279.92149, 159.44895 251.57501, 159.44895 251.57501, 148.81902 223.22852999999998, 148.81902 223.22852999999998, 159.44895 194.88205, 159.44895 194.88205, 148.81902 166.53557, 148.81902 166.53557, 159.44895 138.18909, 159.44895 138.18909, 148.81902 109.84261, 148.81902 109.84261, 159.44895 81.49613, 159.44895 81.49613, 148.81902 40.748065, 148.81902 40.748065, 159.44895 10.62993, 159.44895 10.62993, 127.55915999999999 0, 127.55915999999999 0, 95.66936999999999 10.62993, 95.66936999999999 10.62993, 63.779579999999996 0, 63.779579999999996 0, 31.889789999999998 10.62993, 31.889789999999998 "/> 
</g>
<!-- Top--> 
<g transform="translate(22.5000185, 181.9489685) " > 
<polygon style="stroke:#000000; fill:none; stroke-width:0.90000074" points="10.62993, 10.62993 38.97641, 10.62993 38.97641, 0 77.95282, 0 77.95282, 10.62993 106.2993, 10.62993 106.2993, 0 134.64578, 0 134.64578, 10.62993 162.99226, 10.62993 162.99226, 0 191.33874, 0 191.33874, 10.62993 219.68522, 10.62993 219.68522, 0 248.0317, 0 248.0317, 10.62993 276.37818000000004, 10.62993 276.37818000000004, 0 304.72466, 0 304.72466, 10.62993 333.07114, 10.62993 333.07114, 0 361.41761999999994, 0 361.41761999999994, 10.62993 389.7641, 10.62993 389.7641, 0 418.11058, 0 418.11058, 10.62993 446.45705999999996, 10.62993 446.45705999999996, 0 474.80354, 0 474.80354, 10.62993 503.15002000000004, 10.62993 503.15002000000004, 0 531.4965, 0 531.4965, 10.62993 559.84298, 10.62993 559.84298, 0 598.81939, 0 598.81939, 10.62993 627.16587, 10.62993 627.16587, 40.748065 637.7958, 40.748065 637.7958, 81.49613 627.16587, 81.49613 627.16587, 109.84261 637.7958, 109.84261 637.7958, 138.18909 627.16587, 138.18909 627.16587, 166.53557 637.7958, 166.53557 637.7958, 194.88205 627.16587, 194.88205 627.16587, 223.22852999999998 637.7958, 223.22852999999998 637.7958, 251.57501 627.16587, 251.57501 627.16587, 279.92149 637.7958, 279.92149 637.7958, 320.669555 627.16587, 320.669555 627.16587, 350.78769 598.81939, 350.78769 598.81939, 361.41762 559.84298, 361.41762 559.84298, 350.78769 531.4965, 350.78769 531.4965, 361.41762 503.15002000000004, 361.41762 503.15002000000004, 350.78769 474.80354, 350.78769 474.80354, 361.41762 446.45705999999996, 361.41762 446.45705999999996, 350.78769 418.11058, 350.78769 418.11058, 361.41762 389.7641, 361.41762 389.7641, 350.78769 361.41761999999994, 350.78769 361.41761999999994, 361.41762 333.07114, 361.41762 333.07114, 350.78769 304.72466, 350.78769 304.72466, 361.41762 276.37818000000004, 361.41762 276.37818000000004, 350.78769 248.0317, 350.78769 248.0317, 361.41762 219.68522, 361.41762 219.68522, 350.78769 191.33874, 350.78769 191.33874, 361.41762 162.99226, 361.41762 162.99226, 350.78769 134.64578, 350.78769 134.64578, 361.41762 106.2993, 361.41762 106.2993, 350.78769 77.95282, 350.78769 77.95282, 361.41762 38.97641, 361.41762 38.97641, 350.78769 10.62993, 350.78769 10.62993, 320.669555 0, 320.669555 0, 279.92149 10.62993, 279.92149 10.62993, 251.57501 0, 251.57501 0, 223.22852999999998 10.62993, 223.22852999999998 10.62993, 194.88205 0, 194.88205 0, 166.53557 10.62993, 166.53557 10.62993, 138.18909 0, 138.18909 0, 109.84261 10.62993, 109.84261 10.62993, 81.49613 0, 81.49613 0, 40.748065 10.62993, 40.748065 "/> 
</g>
<!-- Bottom--> 
<g transform="translate(660.2958185, 181.9489685) " > 
<polygon style="stroke:#000000; fill:none; stroke-width:0.90000074" points="10.62993, 10.62993 38.97641, 10.62993 38.97641, 0 77.95282, 0 77.95282, 10.62993 106.2993, 10.62993 106.2993, 0 134.64578, 0 134.64578, 10.62993 162.99226, 10.62993 162.99226, 0 191.33874, 0 191.33874, 10.62993 219.68522, 10.62993 219.68522, 0 248.0317, 0 248.0317, 10.62993 276.37818000000004, 10.62993 276.37818000000004, 0 304.72466, 0 304.72466, 10.62993 333.07114, 10.62993 333.07114, 0 361.41761999999994, 0 361.41761999999994, 10.62993 389.7641, 10.62993 389.7641, 0 418.11058, 0 418.11058, 10.62993 446.45705999999996, 10.62993 446.45705999999996, 0 474.80354, 0 474.80354, 10.62993 503.15002000000004, 10.62993 503.15002000000004, 0 531.4965, 0 531.4965, 10.62993 559.84298, 10.62993 559.84298, 0 598.81939, 0 598.81939, 10.62993 627.16587, 10.62993 627.16587, 40.748065 637.7958, 40.748065 637.7958, 81.49613 627.16587, 81.49613 627.16587, 109.84261 637.7958, 109.84261 637.7958, 138.18909 627.16587, 138.18909 627.16587, 166.53557 637.7958, 166.53557 637.7958, 194.88205 627.16587, 194.88205 627.16587, 223.22852999999998 637.7958, 223.22852999999998 637.7958, 251.57501 627.16587, 251.57501 627.16587, 279.92149 637.7958, 279.92149 637.7958, 320.669555 627.16587, 320.669555 627.16587, 350.78769 598.81939, 350.78769 598.81939, 361.41762 559.84298, 361.41762 559.84298, 350.78769 531.4965, 350.78769 531.4965, 361.41762 503.15002000000004, 361.41762 503.15002000000004, 350.78769 474.80354, 350.78769 474.80354, 361.41762 446.45705999999996, 361.41762 446.45705999999996, 350.78769 418.11058, 350.78769 418.11058, 361.41762 389.7641, 361.41762 389.7641, 350.78769 361.41761999999994, 350.78769 361.41761999999994, 361.41762 333.07114, 361.41762 333.07114, 350.78769 304.72466, 350.78769 304.72466, 361.41762 276.37818000000004, 361.41762 276.37818000000004, 350.78769 248.0317, 350.78769 248.0317, 361.41762 219.68522, 361.41762 219.68522, 350.78769 191.33874, 350.78769 191.33874, 361.41762 162.99226, 361.41762 162.99226, 350.78769 134.64578, 350.78769 134.64578, 361.41762 106.2993, 361.41762 106.2993, 350.78769 77.95282, 350.78769 77.95282, 361.41762 38.97641, 361.41762 38.97641, 350.78769 10.62993, 350.78769 10.62993, 320.669555 0, 320.669555 0, 279.92149 10.62993, 279.92149 10.62993, 251.57501 0, 251.57501 0, 223.22852999999998 10.62993, 223.22852999999998 10.62993, 194.88205 0, 194.88205 0, 166.53557 10.62993, 166.53557 10.62993, 138.18909 0, 138.18909 0, 109.84261 10.62993, 109.84261 10.62993, 81.49613 0, 81.49613 0, 40.748065 10.62993, 40.748065 "/> 
</g></svg>